<?xml version="1.0" encoding="UTF-8" standalone="no"?>
<!-- Created with Inkscape (http://www.inkscape.org/) -->

<svg
   xmlns:dc="http://purl.org/dc/elements/1.1/"
   xmlns:cc="http://creativecommons.org/ns#"
   xmlns:rdf="http://www.w3.org/1999/02/22-rdf-syntax-ns#"
   xmlns:svg="http://www.w3.org/2000/svg"
   xmlns="http://www.w3.org/2000/svg"
   xmlns:sodipodi="http://sodipodi.sourceforge.net/DTD/sodipodi-0.dtd"
   xmlns:inkscape="http://www.inkscape.org/namespaces/inkscape"
   width="210mm"
   height="297mm"
   viewBox="0 0 744.09448819 1052.3622047"
   id="svg2"
   version="1.1"
   inkscape:version="0.91 r13725"
   inkscape:export-filename="/home/lightair/ec.png"
   inkscape:export-xdpi="92"
   inkscape:export-ydpi="92"
   sodipodi:docname="ec.svg">
  <defs
     id="defs4" />
  <sodipodi:namedview
     id="base"
     pagecolor="#ffffff"
     bordercolor="#666666"
     borderopacity="1.0"
     inkscape:pageopacity="0.0"
     inkscape:pageshadow="2"
     inkscape:zoom="1.4"
     inkscape:cx="284.19769"
     inkscape:cy="893.54484"
     inkscape:document-units="px"
     inkscape:current-layer="text4198"
     showgrid="false"
     inkscape:window-width="1900"
     inkscape:window-height="1038"
     inkscape:window-x="10"
     inkscape:window-y="32"
     inkscape:window-maximized="0" />
  <metadata
     id="metadata7">
    <rdf:RDF>
      <cc:Work
         rdf:about="">
        <dc:format>image/svg+xml</dc:format>
        <dc:type
           rdf:resource="http://purl.org/dc/dcmitype/StillImage" />
        <dc:title></dc:title>
      </cc:Work>
    </rdf:RDF>
  </metadata>
  <g
     inkscape:label="Layer 1"
     inkscape:groupmode="layer"
     id="layer1">
    <path
       style="color:#000000;font-style:normal;font-variant:normal;font-weight:normal;font-stretch:normal;font-size:medium;line-height:normal;font-family:sans-serif;text-indent:0;text-align:start;text-decoration:none;text-decoration-line:none;text-decoration-style:solid;text-decoration-color:#000000;letter-spacing:normal;word-spacing:normal;text-transform:none;direction:ltr;block-progression:tb;writing-mode:lr-tb;baseline-shift:baseline;text-anchor:start;white-space:normal;clip-rule:nonzero;display:inline;overflow:visible;visibility:visible;opacity:1;isolation:auto;mix-blend-mode:normal;color-interpolation:sRGB;color-interpolation-filters:linearRGB;solid-color:#000000;solid-opacity:1;fill:#ff980f;fill-opacity:1;fill-rule:nonzero;stroke:none;stroke-width:22.99300003;stroke-linecap:butt;stroke-linejoin:miter;stroke-miterlimit:4;stroke-dasharray:none;stroke-dashoffset:0;stroke-opacity:1;color-rendering:auto;image-rendering:auto;shape-rendering:auto;text-rendering:auto;enable-background:accumulate"
       d="m 214.6854,69.759766 c -8.26031,0 -16.52133,3.13275 -22.78753,9.39894 l -19.51272,19.51272 c -2.66138,2.661384 -5.02859,5.129454 -6.55963,8.357484 5.82885,-1.2785 12.17136,-0.47464 17.86816,1.3953 l 18.78068,-18.689014 c 6.87285,-6.83895 17.56329,-6.85591 24.4192,0 6.85592,6.85592 6.85591,17.564714 0,24.420634 l -19.51272,19.51128 c -3.42795,3.42796 -7.81849,5.14285 -12.2096,5.14285 -4.39111,0 -8.78164,-1.71345 -12.20959,-5.14141 -2.6975,-2.69749 -4.5136,-5.2516 -5.08841,-8.67264 -4.8955,-1.53542 -10.07417,-1.62149 -14.37274,1.68324 1.07867,6.35918 4.00311,12.68434 8.88465,17.56589 6.26621,6.2662 14.52581,9.39894 22.78609,9.39894 8.26028,0 16.52134,-3.13274 22.78752,-9.39894 l 19.51273,-19.51272 c 12.53238,-12.53238 12.53239,-33.041224 0,-45.573614 -6.2662,-6.26619 -14.52579,-9.39894 -22.78609,-9.39894 z m -42.49221,37.982554 c -8.26028,0 -16.52133,3.13273 -22.78752,9.39894 l -19.51272,19.51272 c -12.53238,12.53238 -12.53239,33.04122 0,45.57361 12.53239,12.53238 33.04122,12.53238 45.57361,0 l 19.51273,-19.51272 c 2.66138,-2.66138 4.61172,-5.12945 6.14276,-8.35748 -5.82886,1.2785 -11.80033,0.4288 -17.49713,-1.44114 l -18.73485,18.73484 c -6.85592,6.85592 -17.56328,6.85592 -24.41919,0 -6.85592,-6.85591 -6.85592,-17.56471 0,-24.42062 l 19.51271,-19.51129 c 3.42796,-3.42795 7.81849,-5.14284 12.2096,-5.14284 4.39111,0 8.78164,1.71345 12.2096,5.14141 2.6975,2.69749 4.3288,5.6212 4.90361,9.04223 4.8955,1.53542 10.2604,1.15878 14.55897,-2.14595 -1.07867,-6.35918 -4.00454,-12.59122 -8.88608,-17.47277 -6.26621,-6.2662 -14.52582,-9.39894 -22.7861,-9.39894 z"
       id="rect4160"
       inkscape:connector-curvature="0" />
    <g
       style="font-style:normal;font-weight:normal;font-size:48.22630692px;line-height:125%;font-family:sans-serif;letter-spacing:0px;word-spacing:0px;fill:#26324f;fill-opacity:1;stroke:none;stroke-width:1px;stroke-linecap:butt;stroke-linejoin:miter;stroke-opacity:1"
       id="text4198">
      <path
         d="m 229.55357,107.10745 18.57143,0 c 0,0 1.47322,-5.16834 -0.49107,-12.980838 l 5.26695,0 0,12.980838 -4.77588,0 m -0.49107,-12.980838 -19.15179,0 c 3.39286,6.741068 1.07143,12.980838 1.07143,12.980838 l -5.26352,0 0,18.22615 24.26622,0 0,12.55697 -24.26622,0 0,20.45144 28.71679,0 0,12.92786 -44.29379,0 0,-77.143258 19.76909,0"
         style="font-style:normal;font-variant:normal;font-weight:bold;font-stretch:normal;font-size:108.50919342px;font-family:'Roboto Condensed';-inkscape-font-specification:'Roboto Condensed, Bold';fill:#0e424f;fill-opacity:1"
         id="path4209"
         inkscape:connector-curvature="0"
         sodipodi:nodetypes="cccccccccccccccccccc" />
      <path
         d="m 288.39949,171.26987 q -0.6358,-1.32458 -1.2716,-4.45058 -4.0267,5.51024 -10.91449,5.51024 -7.20569,0 -11.97416,-4.76847 -4.71549,-4.76847 -4.71549,-12.34504 0,-9.00711 5.72216,-13.93453 5.77515,-4.92742 16.58368,-5.03339 l 4.55654,0 0,-4.60952 q 0,-3.86776 -1.32457,-5.45725 -1.32458,-1.58949 -3.86776,-1.58949 -5.6162,0 -5.6162,6.56989 l -14.99419,0 q 0,-7.94745 5.9341,-13.0868 5.98708,-5.19233 15.10015,-5.19233 9.43098,0 14.57033,4.92742 5.19233,4.87443 5.19233,13.98751 l 0,26.96835 q 0.10597,7.41762 2.11932,11.60328 l 0,0.90071 -15.10015,0 z m -8.84816,-10.70257 q 2.4902,0 4.23864,-1.00668 1.74843,-1.00667 2.59616,-2.38423 l 0,-11.92118 -3.60284,0 q -3.81478,0 -6.04006,2.43722 -2.17231,2.43722 -2.17231,6.51691 0,6.35796 4.98041,6.35796 z"
         style="font-style:normal;font-variant:normal;font-weight:bold;font-stretch:normal;font-size:108.50919342px;font-family:'Roboto Condensed';-inkscape-font-specification:'Roboto Condensed, Bold';fill:#0e424f;fill-opacity:1"
         id="path4211" />
      <path
         d="m 337.6207,155.9048 q 0,-1.90739 -1.8544,-3.49688 -1.80143,-1.64248 -8.1064,-4.39759 -9.27203,-3.7618 -12.76891,-7.7885 -3.44389,-4.02671 -3.44389,-10.01379 0,-7.52359 5.40426,-12.39802 5.45725,-4.92742 14.41138,-4.92742 9.43097,0 15.10016,4.87443 5.66918,4.87444 5.66918,13.0868 l -14.99419,0 q 0,-6.99375 -5.82813,-6.99375 -2.38424,0 -3.92075,1.48352 -1.5365,1.48353 -1.5365,4.13268 0,1.90738 1.69545,3.39091 1.69546,1.43054 8.00044,4.13267 9.16606,3.39092 12.92785,7.57657 3.81478,4.13268 3.81478,10.75555 0,7.68254 -5.77515,12.34504 -5.77515,4.66251 -15.15314,4.66251 -6.30498,0 -11.12643,-2.43722 -4.82145,-2.4902 -7.57657,-6.88779 -2.70213,-4.39759 -2.70213,-9.48396 l 14.25242,0 q 0.10597,3.92074 1.80143,5.88111 1.74844,1.96038 5.66918,1.96038 6.04006,0 6.04006,-5.45725 z"
         style="font-style:normal;font-variant:normal;font-weight:bold;font-stretch:normal;font-size:108.50919342px;font-family:'Roboto Condensed';-inkscape-font-specification:'Roboto Condensed, Bold';fill:#0e424f;fill-opacity:1"
         id="path4213" />
      <path
         d="m 380.0071,146.31487 7.62955,-32.37261 16.00087,0 -18.86195,65.91085 q -4.23864,14.57033 -15.94788,14.57033 -2.70214,0 -6.14603,-1.00668 l 0,-11.70924 1.74844,0.053 q 3.49688,0 5.24532,-1.37756 1.80142,-1.32457 2.70213,-4.6625 l 1.16562,-3.86776 -16.53069,-57.91042 16.10683,0 6.88779,32.37261 z"
         style="font-style:normal;font-variant:normal;font-weight:bold;font-stretch:normal;font-size:108.50919342px;font-family:'Roboto Condensed';-inkscape-font-specification:'Roboto Condensed, Bold';fill:#0e424f;fill-opacity:1"
         id="path4215" />
      <path
         d="m 463.19041,145.57311 q -0.58281,13.19277 -7.41762,19.97459 -6.83481,6.78183 -19.28581,6.78183 -13.08681,0 -20.08056,-8.58325 -6.94078,-8.63623 -6.94078,-24.58411 l 0,-12.98084 q 0,-15.8949 7.20569,-24.47815 7.20569,-8.636228 20.02758,-8.636228 12.60995,0 19.12686,7.046738 6.5699,7.04674 7.47061,20.23951 l -15.62999,0 q -0.21193,-8.15938 -2.54318,-11.2324 -2.27827,-3.12599 -8.4243,-3.12599 -6.252,0 -8.84816,4.39758 -2.59617,4.34461 -2.75512,14.3584 l 0,14.57033 q 0,11.49731 2.54319,15.78893 2.59616,4.29162 8.84816,4.29162 6.14603,0 8.47728,-2.96704 2.33125,-3.02004 2.64915,-10.86152 l 15.577,0 z"
         style="font-style:normal;font-variant:normal;font-weight:bold;font-stretch:normal;font-size:108.50919342px;font-family:'Roboto Condensed';-inkscape-font-specification:'Roboto Condensed, Bold';fill:#0e424f;fill-opacity:1"
         id="path4217" />
      <path
         d="m 500.22554,166.02455 q -4.66251,6.30498 -12.50399,6.30498 -7.89447,0 -11.97416,-5.40427 -4.07969,-5.45725 -4.07969,-15.84192 l 0,-37.14108 14.99419,0 0,37.51196 q 0.10596,8.37132 5.56321,8.37132 5.13936,0 7.41762,-4.45057 l 0,-41.43271 15.10016,0 0,57.32761 -14.09348,0 -0.42386,-5.24532 z"
         style="font-style:normal;font-variant:normal;font-weight:bold;font-stretch:normal;font-size:108.50919342px;font-family:'Roboto Condensed';-inkscape-font-specification:'Roboto Condensed, Bold';fill:#0e424f;fill-opacity:1"
         id="path4219" />
      <path
         d="m 553.73836,128.40662 -4.9804,-0.42387 q -6.14603,0 -8.31833,5.40427 l 0,37.88285 -15.04717,0 0,-57.32761 14.14646,0 0.42386,6.19901 q 3.54986,-7.25867 9.80186,-7.25867 2.54318,0 4.13267,0.68877 l -0.15895,14.83525 z"
         style="font-style:normal;font-variant:normal;font-weight:bold;font-stretch:normal;font-size:108.50919342px;font-family:'Roboto Condensed';-inkscape-font-specification:'Roboto Condensed, Bold';fill:#0e424f;fill-opacity:1"
         id="path4221" />
      <path
         d="m 577.20983,171.26987 -15.04717,0 0,-81.381898 15.04717,0 0,81.381898 z"
         style="font-style:normal;font-variant:normal;font-weight:bold;font-stretch:normal;font-size:108.50919342px;font-family:'Roboto Condensed';-inkscape-font-specification:'Roboto Condensed, Bold';fill:#0e424f;fill-opacity:1"
         id="path4223" />
    </g>
  </g>
</svg>
